<?xml version="1.0" standalone="no"?>
<!DOCTYPE svg PUBLIC "-//W3C//DTD SVG 1.1//EN" "http://www.w3.org/Graphics/SVG/1.1/DTD/svg11.dtd" >
<svg xmlns="http://www.w3.org/2000/svg" xmlns:xlink="http://www.w3.org/1999/xlink" version="1.1">
<metadata>
Created by FontForge 20170731 at Mon Nov  1 22:00:55 2004
 By Aleksey,,,
(C) Copyright2004 Wataru Osakabe and Lovedesign co. All Right Reserved.
</metadata>
<defs>
<font id="LVDCGameOver2" horiz-adv-x="1000" >
  <font-face 
    font-family="LVDC Game Over 2"
    font-weight="400"
    font-stretch="normal"
    units-per-em="700"
    panose-1="0 0 4 0 0 0 0 0 0 0"
    ascent="600"
    descent="-100"
    x-height="500"
    cap-height="600"
    bbox="0 -100 1100 600"
    underline-thickness="20"
    underline-position="70"
    unicode-range="U+0020-007E"
  />
<missing-glyph horiz-adv-x="350" 
 />
    <glyph glyph-name=".notdef" horiz-adv-x="350" 
 />
    <glyph glyph-name=".null" horiz-adv-x="0" 
 />
    <glyph glyph-name="nonmarkingreturn" horiz-adv-x="400" 
 />
    <glyph glyph-name="space" unicode=" " horiz-adv-x="400" 
 />
    <glyph glyph-name="exclam" unicode="!" horiz-adv-x="400" 
d="M0 100h300v-200h-300v200zM0 600v-400h300v400h-300z" />
    <glyph glyph-name="quotedbl" unicode="&#x22;" horiz-adv-x="600" 
d="M0 300h100v100h100v200h-200v-300zM300 300h100v100h100v200h-200v-300z" />
    <glyph glyph-name="numbersign" unicode="#" horiz-adv-x="800" 
d="M600 600h-200v-100h-100v100h-200v-100h-100v-100h100v-300h-100v-100h100v-100h200v100h100v-100h200v100h100v100h-100v300h100v100h-100v100zM400 100h-100v300h100v-300z" />
    <glyph glyph-name="dollar" unicode="$" 
d="M600 600h-300v-100h-300v-300h600v-100h-500v-100h200v-100h300v100h300v300h-600v100h600v100h-300v100z" />
    <glyph glyph-name="ampersand" unicode="&#x26;" 
d="M600 0h-300v100h100v100h100v100h-200v100h500v100h-700v-100h-100v-200h100v-100h-100v-200h900v300h-300v-200z" />
    <glyph glyph-name="quotesingle" unicode="'" horiz-adv-x="400" 
d="M0 300h200v100h100v200h-300v-300z" />
    <glyph glyph-name="parenleft" unicode="(" horiz-adv-x="600" 
d="M100 500h-100v-500h100v-100h400v100h-200v500h200v100h-400v-100z" />
    <glyph glyph-name="parenright" unicode=")" horiz-adv-x="600" 
d="M400 600h-400v-100h200v-500h-200v-100h400v100h100v500h-100v100z" />
    <glyph glyph-name="asterisk" unicode="*" horiz-adv-x="800" 
d="M400 500h-100v100h-300v-100h200v-100h-200v-200h300v200h100v-200h300v200h-200v100h200v100h-300v-100z" />
    <glyph glyph-name="plus" unicode="+" horiz-adv-x="800" 
d="M500 400h-300v-100h-200v-100h200v-100h300v100h200v100h-200v100z" />
    <glyph glyph-name="comma" unicode="," horiz-adv-x="300" 
d="M0 4h100v-100h100v300h-200v-200z" />
    <glyph glyph-name="hyphen" unicode="-" horiz-adv-x="600" 
d="M0 200h500v100h-500v-100z" />
    <glyph glyph-name="hyphen" unicode="&#x2010;" horiz-adv-x="600" 
d="M0 200h500v100h-500v-100z" />
    <glyph glyph-name="period" unicode="." horiz-adv-x="300" 
d="M0 -100h200v200h-200v-200z" />
    <glyph glyph-name="slash" unicode="/" horiz-adv-x="400" 
d="M200 200h100v400h-200v-300h-100v-400h200v300z" />
    <glyph glyph-name="zero" unicode="0" horiz-adv-x="900" 
d="M700 600h-600v-100h-100v-500h100v-100h600v100h100v500h-100v100zM500 0h-200v500h200v-500z" />
    <glyph glyph-name="one" unicode="1" horiz-adv-x="600" 
d="M400 600h-300v-100h-100v-100h100v-400h-100v-100h500v100h-100v600z" />
    <glyph glyph-name="two" unicode="2" horiz-adv-x="900" 
d="M700 600h-600v-100h-100v-100h300v100h200v-200h-400v-100h-100v-300h800v100h-500v200h400v100h100v200h-100v100z" />
    <glyph glyph-name="three" unicode="3" horiz-adv-x="900" 
d="M800 300v200h-100v100h-600v-100h-100v-100h300v100h200v-200h-300v-100h300v-200h-200v100h-300v-100h100v-100h600v100h100v200h-100v100h100z" />
    <glyph glyph-name="four" unicode="4" 
d="M800 600h-700v-100h-100v-500h500v-100h300v100h100v100h-100v500zM300 100v400h200v-400h-200z" />
    <glyph glyph-name="five" unicode="5" horiz-adv-x="900" 
d="M700 300h-400v200h400v100h-700v-400h500v-200h-200v100h-300v-100h100v-100h600v100h100v200h-100v100z" />
    <glyph glyph-name="six" unicode="6" horiz-adv-x="900" 
d="M700 600h-600v-100h-100v-500h100v-100h600v100h100v200h-100v100h-400v200h200v-100h300v100h-100v100zM500 200v-200h-200v200h200z" />
    <glyph glyph-name="seven" unicode="7" horiz-adv-x="900" 
d="M0 600v-200h300v100h200v-400h-100v-100h-100v-100h300v100h100v100h100v500h-800z" />
    <glyph glyph-name="eight" unicode="8" horiz-adv-x="900" 
d="M700 600h-600v-100h-100v-200h100v-100h-100v-200h100v-100h600v100h100v200h-100v100h100v200h-100v100zM500 0h-200v200h200v-200zM500 300h-200v200h200v-200z" />
    <glyph glyph-name="nine" unicode="9" horiz-adv-x="900" 
d="M700 600h-600v-100h-100v-200h100v-100h400v-200h-200v100h-300v-100h100v-100h600v100h100v500h-100v100zM500 300h-200v200h200v-200z" />
    <glyph glyph-name="colon" unicode=":" horiz-adv-x="300" 
d="M0 0h200v200h-200v-200zM0 300h200v200h-200v-200z" />
    <glyph glyph-name="semicolon" unicode=";" horiz-adv-x="300" 
d="M0 300h200v200h-200v-200zM0 4h100v-100h100v300h-200v-200z" />
    <glyph glyph-name="less" unicode="&#x3c;" horiz-adv-x="600" 
d="M200 400h-100v-100h-100v-100h100v-100h100v-99h300v100h-100v99h-100v100h100v99h100v100h-300v-99z" />
    <glyph glyph-name="equal" unicode="=" horiz-adv-x="600" 
d="M0 100h500v100h-500v-100zM0 300h500v100h-500v-100z" />
    <glyph glyph-name="greater" unicode="&#x3e;" horiz-adv-x="600" 
d="M400 400h-100v99h-300v-100h100v-99h100v-100h-100v-99h-100v-100h300v99h100v100h100v100h-100v100z" />
    <glyph glyph-name="question" unicode="?" 
d="M300 -100h300v200h-300v-200zM800 600h-700v-100h-100v-200h300v200h300v-200h-100v-100h300v100h100v200h-100v100z" />
    <glyph glyph-name="at" unicode="@" 
d="M800 500h-700v-100h-100v-400h100v-100h400v300h-100v-200h-100v200h100v100h-100v100h300v-500h300v500h-100v100z" />
    <glyph glyph-name="A" unicode="A" 
d="M300 0h300v-100h300v600h-100v100h-700v-100h-100v-600h300v100zM600 500v-400h-300v400h300z" />
    <glyph glyph-name="B" unicode="B" 
d="M800 -100v100h100v200h-100v100h100v200h-100v100h-800v-700h800zM600 0h-300v200h300v-200zM600 500v-200h-300v200h300z" />
    <glyph glyph-name="C" unicode="C" 
d="M100 -100h700v100h100v100h-300v-100h-300v500h300v-100h300v100h-100v100h-700v-100h-100v-500h100v-100z" />
    <glyph glyph-name="D" unicode="D" 
d="M800 -100v100h100v500h-100v100h-800v-700h800zM600 500v-500h-300v500h300z" />
    <glyph glyph-name="E" unicode="E" 
d="M900 -100v100h-600v200h600v100h-600v200h600v100h-900v-700h900z" />
    <glyph glyph-name="F" unicode="F" 
d="M300 0h600v100h-600v400h600v100h-800v-100h-100v-600h300v100z" />
    <glyph glyph-name="G" unicode="G" 
d="M100 -100h700v100h100v300h-500v-100h200v-200h-300v500h500v100h-700v-100h-100v-500h100v-100z" />
    <glyph glyph-name="H" unicode="H" 
d="M300 0h300v-100h300v700h-300v-500h-300v500h-300v-700h300v100z" />
    <glyph glyph-name="I" unicode="I" horiz-adv-x="400" 
d="M300 600h-300v-700h300v700z" />
    <glyph glyph-name="J" unicode="J" horiz-adv-x="900" 
d="M700 -100v100h100v600h-600v-100h300v-500h-200v100h-300v-200h700zM900 345h-100v100h100v-100z" />
    <glyph glyph-name="K" unicode="K" 
d="M300 200h200v-100h100v-200h300v300h-300v100h300v300h-300v-200h-100v-100h-200v300h-300v-700h300v300z" />
    <glyph glyph-name="L" unicode="L" 
d="M900 -100v400h-300v-300h-300v600h-300v-700h900z" />
    <glyph glyph-name="M" unicode="M" horiz-adv-x="1200" 
d="M300 500h100v-600h300v600h100v-600h300v700h-500v-100h-100v100h-500v-700h300v600z" />
    <glyph glyph-name="N" unicode="N" 
d="M300 300h100v-100h200v-300h300v700h-300v-300h-100v100h-200v100h-100v100h-200v-700h300v400z" />
    <glyph glyph-name="O" unicode="O" 
d="M100 -100h700v100h100v500h-100v100h-700v-100h-100v-500h100v-100zM300 500h300v-500h-300v500z" />
    <glyph glyph-name="P" unicode="P" 
d="M800 600h-700v-100h-100v-600h300v100h500v100h100v400h-100v100zM600 100h-300v400h300v-400z" />
    <glyph glyph-name="Q" unicode="Q" 
d="M800 500v100h-700v-100h-100v-500h100v-100h400v100h-200v500h300v-200h300v200h-100zM800 200h-300v-100h100v-200h300v200h-100v100z" />
    <glyph glyph-name="R" unicode="R" 
d="M0 600v-700h300v300h300v-300h300v300h-100v100h100v200h-100v100h-800zM600 300h-300v200h300v-200z" />
    <glyph glyph-name="S" unicode="S" 
d="M100 600v-100h-100v-300h600v-200h-300v100h-300v-100h100v-100h700v100h100v301l-600 -1v200h300v-100h300v100h-100v100h-700z" />
    <glyph glyph-name="T" unicode="T" 
d="M900 600h-900v-100h300v-600h300v600h300v100z" />
    <glyph glyph-name="U" unicode="U" 
d="M0 600v-600h100v-100h700v100h100v600h-300v-600h-300v600h-300z" />
    <glyph glyph-name="V" unicode="V" 
d="M600 100h-100v-100h-100v100h-100v500h-300v-500h100v-100h200v-100h300v100h200v100h100v500h-300v-500z" />
    <glyph glyph-name="W" unicode="W" horiz-adv-x="1200" 
d="M0 600v-600h100v-100h400v100h100v-100h400v100h100v600h-300v-600h-100v600h-300v-600h-100v600h-300z" />
    <glyph glyph-name="X" unicode="X" 
d="M300 200h300v-300h300v300h-200v100h200v300h-300v-300h-300v300h-300v-300h200v-100h-200v-300h300v300z" />
    <glyph glyph-name="Y" unicode="Y" 
d="M100 0h200v-100h300v100h200v100h100v500h-300v-500h-300v500h-300v-500h100v-100z" />
    <glyph glyph-name="Z" unicode="Z" 
d="M800 200v100h100v300h-900v-100h600v-200h-500v-100h-100v-300h900v100h-600v200h500z" />
    <glyph glyph-name="bracketleft" unicode="[" horiz-adv-x="600" 
d="M0 600v-700h500v100h-200v500h200v100h-500z" />
    <glyph glyph-name="bracketright" unicode="]" horiz-adv-x="600" 
d="M0 600v-100h200v-500h-200v-100h500v700h-500z" />
    <glyph glyph-name="underscore" unicode="_" horiz-adv-x="600" 
d="M0 -100h500v100h-500v-100z" />
    <glyph glyph-name="a" unicode="a" 
d="M900 -100v600h-800v-100h-100v-400h100v-100h400v100h-200v400h300v-500h300z" />
    <glyph glyph-name="b" unicode="b" 
d="M0 600v-700h700v100h200v400h-100v100h-500v100h-300zM600 400v-400h-300v400h300z" />
    <glyph glyph-name="c" unicode="c" 
d="M900 300v200h-800v-100h-100v-400h100v-100h700v100h-500v400h300v-100h300z" />
    <glyph glyph-name="d" unicode="d" 
d="M800 -100v100h100v600h-300v-100h-500v-100h-100v-400h100v-100h700zM300 400h300v-400h-300v400z" />
    <glyph glyph-name="e" unicode="e" 
d="M400 200v-100h500v300h-100v100h-700v-100h-100v-400h100v-100h700v100h-500v400h300v-200h-200z" />
    <glyph glyph-name="f" unicode="f" 
d="M400 -100v300h500v100h-500v200h200v100h-400v-100h-100v-200h-100v-100h100v-300h300z" />
    <glyph glyph-name="g" unicode="g" 
d="M100 0v-100h700v100h100v500h-800v-100h-100v-300h500v100h-200v200h300v-400h-500z" />
    <glyph glyph-name="h" unicode="h" 
d="M900 -100v500h-100v100h-500v100h-300v-700h300v500h300v-500h300z" />
    <glyph glyph-name="i" unicode="i" horiz-adv-x="400" 
d="M0 -100h300v400h-300v-400zM300 600h-300v-200h300v200z" />
    <glyph glyph-name="j" unicode="j" horiz-adv-x="600" 
d="M500 0v300h-300v-300h-200v-100h400v100h100zM200 400h300v200h-300v-200z" />
    <glyph glyph-name="k" unicode="k" 
d="M900 -100v300h-200v100h200v200h-300v-200h-300v300h-300v-700h300v300h300v-300h300z" />
    <glyph glyph-name="l" unicode="l" horiz-adv-x="500" 
d="M400 -100v100h-100v600h-300v-600h100v-100h300z" />
    <glyph glyph-name="m" unicode="m" horiz-adv-x="1200" 
d="M1100 -100v500h-100v100h-1000v-600h300v500h100v-500h300v500h100v-500h300z" />
    <glyph glyph-name="n" unicode="n" 
d="M800 500h-800v-600h300v500h300v-500h300v500h-100v100z" />
    <glyph glyph-name="o" unicode="o" 
d="M900 400h-100v100h-700v-100h-100v-400h100v-100h700v100h100v400zM300 0v400h300v-400h-300z" />
    <glyph glyph-name="p" unicode="p" 
d="M400 100v-100h400v100h100v300h-100v100h-700v-100h-100v-500h300v500h300v-300h-200z" />
    <glyph glyph-name="q" unicode="q" 
d="M900 -100v600h-800v-100h-100v-300h100v-100h400v100h-200v300h300v-500h300z" />
    <glyph glyph-name="r" unicode="r" 
d="M800 100v100h100v200h-100v100h-800v-600h300v500h300v-300h200z" />
    <glyph glyph-name="s" unicode="s" 
d="M100 -100h700v100h100v300h-600v100h500v100h-700v-100h-100v-200h600v-200h-300v100h-300v-100h100v-100z" />
    <glyph glyph-name="t" unicode="t" 
d="M100 0h100v-100h600v100h100v200h-300v-200h-200v400h500v100h-500v100h-300v-100h-100v-100h100v-400z" />
    <glyph glyph-name="u" unicode="u" 
d="M100 -100h800v600h-300v-500h-300v500h-300v-500h100v-100z" />
    <glyph glyph-name="v" unicode="v" 
d="M600 -100v100h200v100h100v400h-300v-400h-100v-100h-100v100h-100v400h-300v-400h100v-100h200v-100h300z" />
    <glyph glyph-name="w" unicode="w" horiz-adv-x="1200" 
d="M800 0h-100v500h-300v-500h-100v500h-300v-500h100v-100h400v100h100v-100h400v100h100v500h-300v-500z" />
    <glyph glyph-name="x" unicode="x" 
d="M900 300v200h-300v-200h-300v200h-300v-200h200v-100h-200v-300h300v300h300v-300h300v300h-200v100h200z" />
    <glyph glyph-name="y" unicode="y" 
d="M900 500h-300v-300h-300v300h-300v-300h100v-100h500v-100h-500v-100h700v100h100v500z" />
    <glyph glyph-name="z" unicode="z" 
d="M800 200v100h100v200h-900v-100h600v-100h-500v-100h-100v-200h100v-100h700v100h-500v200h500z" />
    <glyph glyph-name="braceleft" unicode="{" horiz-adv-x="600" 
d="M100 300h-100v-100h100v-300h400v100h-100v500h100v100h-400v-300z" />
    <glyph glyph-name="braceright" unicode="}" horiz-adv-x="600" 
d="M400 600h-400v-100h100v-500h-100v-100h400v300h100v100h-100v300z" />
    <glyph glyph-name="asciitilde" unicode="~" horiz-adv-x="600" 
d="M400 600h-400v-100h100v-100h400v100h-100v100z" />
  </font>
</defs>
</svg>
